<?xml version="1.0" standalone="no"?><!DOCTYPE svg PUBLIC "-//W3C//DTD SVG 1.1//EN" "http://www.w3.org/Graphics/SVG/1.1/DTD/svg11.dtd"><svg t="1519369043229" class="icon" style="" viewBox="0 0 1024 1024" version="1.1" xmlns="http://www.w3.org/2000/svg" p-id="2291" xmlns:xlink="http://www.w3.org/1999/xlink" width="24" height="24"><defs><style type="text/css"></style></defs><path d="M853.333333 85.333333l-113.777778 0L739.555556 28.444444c0-17.066667-11.377778-28.444444-28.444444-28.444444-14.222222 0-28.444444 11.377778-28.444444 28.444444l0 56.888889L341.333333 85.333333 341.333333 28.444444c0-17.066667-11.377778-28.444444-28.444444-28.444444-14.222222 0-28.444444 11.377778-28.444444 28.444444l0 56.888889L170.666667 85.333333C76.8 85.333333 0 162.133333 0 256l0 597.333333c0 93.866667 76.8 170.666667 170.666667 170.666667l682.666667 0c93.866667 0 170.666667-76.8 170.666667-170.666667L1024 256C1024 162.133333 947.2 85.333333 853.333333 85.333333zM170.666667 142.222222l113.777778 0 0 56.888889c0 14.222222 14.222222 28.444444 28.444444 28.444444 17.066667 0 28.444444-14.222222 28.444444-28.444444L341.333333 142.222222l341.333333 0 0 56.888889c0 14.222222 14.222222 28.444444 28.444444 28.444444 17.066667 0 28.444444-14.222222 28.444444-28.444444L739.555556 142.222222l113.777778 0c62.577778 0 113.777778 51.2 113.777778 113.777778l0 113.777778L56.888889 369.777778 56.888889 256C56.888889 193.422222 108.088889 142.222222 170.666667 142.222222zM853.333333 967.111111 170.666667 967.111111c-62.577778 0-113.777778-51.2-113.777778-113.777778L56.888889 426.666667l910.222222 0 0 426.666667C967.111111 915.911111 915.911111 967.111111 853.333333 967.111111z" p-id="2292" fill="#ffffff"></path><path d="M256 512 199.111111 512c-14.222222 0-28.444444 11.377778-28.444444 28.444444 0 14.222222 14.222222 28.444444 28.444444 28.444444l56.888889 0c17.066667 0 28.444444-14.222222 28.444444-28.444444C284.444444 523.377778 273.066667 512 256 512z" p-id="2293" fill="#ffffff"></path><path d="M256 654.222222 199.111111 654.222222c-14.222222 0-28.444444 11.377778-28.444444 28.444444 0 14.222222 14.222222 28.444444 28.444444 28.444444l56.888889 0c17.066667 0 28.444444-14.222222 28.444444-28.444444C284.444444 665.6 273.066667 654.222222 256 654.222222z" p-id="2294" fill="#ffffff"></path><path d="M256 796.444444 199.111111 796.444444c-14.222222 0-28.444444 11.377778-28.444444 28.444444 0 14.222222 14.222222 28.444444 28.444444 28.444444l56.888889 0c17.066667 0 28.444444-14.222222 28.444444-28.444444C284.444444 807.822222 273.066667 796.444444 256 796.444444z" p-id="2295" fill="#ffffff"></path><path d="M540.444444 512l-56.888889 0c-14.222222 0-28.444444 11.377778-28.444444 28.444444 0 14.222222 14.222222 28.444444 28.444444 28.444444l56.888889 0c17.066667 0 28.444444-14.222222 28.444444-28.444444C568.888889 523.377778 557.511111 512 540.444444 512z" p-id="2296" fill="#ffffff"></path><path d="M540.444444 654.222222l-56.888889 0c-14.222222 0-28.444444 11.377778-28.444444 28.444444 0 14.222222 14.222222 28.444444 28.444444 28.444444l56.888889 0c17.066667 0 28.444444-14.222222 28.444444-28.444444C568.888889 665.6 557.511111 654.222222 540.444444 654.222222z" p-id="2297" fill="#ffffff"></path><path d="M540.444444 796.444444l-56.888889 0c-14.222222 0-28.444444 11.377778-28.444444 28.444444 0 14.222222 14.222222 28.444444 28.444444 28.444444l56.888889 0c17.066667 0 28.444444-14.222222 28.444444-28.444444C568.888889 807.822222 557.511111 796.444444 540.444444 796.444444z" p-id="2298" fill="#ffffff"></path><path d="M824.888889 512l-56.888889 0c-14.222222 0-28.444444 11.377778-28.444444 28.444444 0 14.222222 14.222222 28.444444 28.444444 28.444444l56.888889 0c17.066667 0 28.444444-14.222222 28.444444-28.444444C853.333333 523.377778 841.955556 512 824.888889 512z" p-id="2299" fill="#ffffff"></path><path d="M824.888889 654.222222l-56.888889 0c-14.222222 0-28.444444 11.377778-28.444444 28.444444 0 14.222222 14.222222 28.444444 28.444444 28.444444l56.888889 0c17.066667 0 28.444444-14.222222 28.444444-28.444444C853.333333 665.6 841.955556 654.222222 824.888889 654.222222z" p-id="2300" fill="#ffffff"></path><path d="M824.888889 796.444444l-56.888889 0c-14.222222 0-28.444444 11.377778-28.444444 28.444444 0 14.222222 14.222222 28.444444 28.444444 28.444444l56.888889 0c17.066667 0 28.444444-14.222222 28.444444-28.444444C853.333333 807.822222 841.955556 796.444444 824.888889 796.444444z" p-id="2301" fill="#ffffff"></path></svg>